<?xml version="1.0" encoding="iso-8859-1"?>
<!-- Generator: Adobe Illustrator 19.0.0, SVG Export Plug-In . SVG Version: 6.00 Build 0)  -->
<svg version="1.1" id="Layer_1" xmlns="http://www.w3.org/2000/svg" xmlns:xlink="http://www.w3.org/1999/xlink" x="0px" y="0px"
	 viewBox="0 0 300.109 300.109" style="enable-background:new 0 0 300.109 300.109;" xml:space="preserve">
<g>
	<path style="fill:#28D2E4;" d="M198.942,228.221c0-25.865,20.968-46.833,46.833-46.833V25.054H7.5v250h238.275
		C219.91,275.054,198.942,254.086,198.942,228.221z"/>
	<circle style="fill:#FFDB77;" cx="245.775" cy="228.221" r="46.833"/>
	<g>
		<path style="fill:#22313F;" d="M87.073,97.221H66.475c-4.142,0-7.5,3.358-7.5,7.5s3.358,7.5,7.5,7.5h20.598
			c4.142,0,7.5-3.358,7.5-7.5S91.215,97.221,87.073,97.221z"/>
		<path style="fill:#22313F;" d="M119.27,112.221h67.53c4.143,0,7.5-3.358,7.5-7.5s-3.357-7.5-7.5-7.5h-67.53
			c-4.142,0-7.5,3.358-7.5,7.5C111.77,108.863,115.128,112.221,119.27,112.221z"/>
		<path style="fill:#22313F;" d="M87.073,142.555H66.475c-4.142,0-7.5,3.358-7.5,7.5s3.358,7.5,7.5,7.5h20.598
			c4.142,0,7.5-3.358,7.5-7.5S91.215,142.555,87.073,142.555z"/>
		<path style="fill:#22313F;" d="M119.27,157.555h67.53c4.143,0,7.5-3.358,7.5-7.5s-3.357-7.5-7.5-7.5h-67.53
			c-4.142,0-7.5,3.358-7.5,7.5S115.128,157.555,119.27,157.555z"/>
		<path style="fill:#22313F;" d="M87.073,187.888H66.475c-4.142,0-7.5,3.358-7.5,7.5s3.358,7.5,7.5,7.5h20.598
			c4.142,0,7.5-3.358,7.5-7.5S91.215,187.888,87.073,187.888z"/>
		<path style="fill:#22313F;" d="M194.3,195.388c0-4.142-3.357-7.5-7.5-7.5h-67.53c-4.142,0-7.5,3.358-7.5,7.5s3.358,7.5,7.5,7.5
			h67.53C190.943,202.888,194.3,199.53,194.3,195.388z"/>
		<path style="fill:#22313F;" d="M253.275,174.418V25.054c0-4.142-3.357-7.5-7.5-7.5H7.5c-4.142,0-7.5,3.358-7.5,7.5v250
			c0,4.142,3.358,7.5,7.5,7.5h238.275c29.96,0,54.334-24.374,54.334-54.334C300.109,200.807,279.697,178.085,253.275,174.418z
			 M208.329,267.554H15v-235h223.275v141.849C194.066,180.542,174.902,235.732,208.329,267.554z M245.775,267.554
			c-21.688,0-39.333-17.645-39.333-39.334s17.645-39.333,39.333-39.333s39.334,17.645,39.334,39.333
			C285.109,249.909,267.463,267.554,245.775,267.554z"/>
		<path style="fill:#22313F;" d="M269.02,209.137c-3.542-2.143-8.154-1.011-10.3,2.534l-14.715,24.32l-11.406-10.062
			c-3.107-2.74-7.845-2.443-10.586,0.663c-2.74,3.106-2.443,7.846,0.662,10.586l18.138,16c3.491,3.078,8.949,2.275,11.379-1.742
			l19.362-32C273.699,215.893,272.564,211.283,269.02,209.137z"/>
	</g>
</g>
<g>
</g>
<g>
</g>
<g>
</g>
<g>
</g>
<g>
</g>
<g>
</g>
<g>
</g>
<g>
</g>
<g>
</g>
<g>
</g>
<g>
</g>
<g>
</g>
<g>
</g>
<g>
</g>
<g>
</g>
</svg>
